REM DIRINDEX 1\2,1\3,1\4,1\6,1\5\7,1\5\8
REM DIRNAME cjc114,folder01,folder02,folder03,folder04,folder05,folder06,folder07
TITLE ""
FILE "DB4500_5th_3B_11.mp3" MP3
  TRACK 01 AUDIO
    TITLE "2:cjc114_2000"
    INDEX 01 00:00:00
  TRACK 02 AUDIO
    TITLE "0:"
    INDEX 01 00:01:21
  TRACK 03 AUDIO
    TITLE "3:cjc114_2001"
    INDEX 01 00:01:44
  TRACK 04 AUDIO
    TITLE "0:"
    INDEX 01 00:03:04
  TRACK 05 AUDIO
    TITLE "4:cjc114_2002"
    INDEX 01 00:03:29
  TRACK 06 AUDIO
    TITLE "0:"
    INDEX 01 00:06:18
  TRACK 07 AUDIO
    TITLE "2:cjc114_2003"
    INDEX 01 00:06:65
  TRACK 08 AUDIO
    TITLE "0:"
    INDEX 01 00:08:11
  TRACK 09 AUDIO
    TITLE "3:cjc114_2004"
    INDEX 01 00:08:36
  TRACK 10 AUDIO
    TITLE "0:"
    INDEX 01 00:10:04
  TRACK 11 AUDIO
    TITLE "4:cjc114_2005"
    INDEX 01 00:10:23
  TRACK 12 AUDIO
    TITLE "0:"
    INDEX 01 00:13:59
  TRACK 13 AUDIO
    TITLE "2:cjc114_2006"
    INDEX 01 00:14:29
  TRACK 14 AUDIO
    TITLE "0:"
    INDEX 01 00:15:38
  TRACK 15 AUDIO
    TITLE "3:cjc114_2007"
    INDEX 01 00:15:62
  TRACK 16 AUDIO
    TITLE "0:"
    INDEX 01 00:17:31
  TRACK 17 AUDIO
    TITLE "4:cjc114_2008"
    INDEX 01 00:17:55
  TRACK 18 AUDIO
    TITLE "0:"
    INDEX 01 00:21:00
  TRACK 19 AUDIO
    TITLE "2:cjc114_2009"
    INDEX 01 00:21:47
  TRACK 20 AUDIO
    TITLE "0:"
    INDEX 01 00:22:46
  TRACK 21 AUDIO
    TITLE "3:cjc114_2010"
    INDEX 01 00:22:72
  TRACK 22 AUDIO
    TITLE "0:"
    INDEX 01 00:24:25
  TRACK 23 AUDIO
    TITLE "4:cjc114_2011"
    INDEX 01 00:24:51
  TRACK 24 AUDIO
    TITLE "0:"
    INDEX 01 00:29:09
  TRACK 25 AUDIO
    TITLE "2:cjc114_2012"
    INDEX 01 00:29:56
  TRACK 26 AUDIO
    TITLE "0:"
    INDEX 01 00:31:04
  TRACK 27 AUDIO
    TITLE "3:cjc114_2013"
    INDEX 01 00:31:29
  TRACK 28 AUDIO
    TITLE "0:"
    INDEX 01 00:33:21
  TRACK 29 AUDIO
    TITLE "4:cjc114_2014"
    INDEX 01 00:33:44
  TRACK 30 AUDIO
    TITLE "0:"
    INDEX 01 00:37:26
  TRACK 31 AUDIO
    TITLE "2:cjc114_2015"
    INDEX 01 00:37:71
  TRACK 32 AUDIO
    TITLE "0:"
    INDEX 01 00:39:27
  TRACK 33 AUDIO
    TITLE "3:cjc114_2016"
    INDEX 01 00:39:51
  TRACK 34 AUDIO
    TITLE "0:"
    INDEX 01 00:41:02
  TRACK 35 AUDIO
    TITLE "4:cjc114_2017"
    INDEX 01 00:41:28
  TRACK 36 AUDIO
    TITLE "0:"
    INDEX 01 00:46:74
  TRACK 37 AUDIO
    TITLE "2:cjc114_2018"
    INDEX 01 00:47:42
  TRACK 38 AUDIO
    TITLE "0:"
    INDEX 01 00:48:55
  TRACK 39 AUDIO
    TITLE "3:cjc114_2019"
    INDEX 01 00:49:02
  TRACK 40 AUDIO
    TITLE "0:"
    INDEX 01 00:50:42
  TRACK 41 AUDIO
    TITLE "4:cjc114_2020"
    INDEX 01 00:50:64
  TRACK 42 AUDIO
    TITLE "0:"
    INDEX 01 00:54:29
  TRACK 43 AUDIO
    TITLE "2:cjc114_2021"
    INDEX 01 00:55:03
  TRACK 44 AUDIO
    TITLE "0:"
    INDEX 01 00:56:12
  TRACK 45 AUDIO
    TITLE "3:cjc114_2022"
    INDEX 01 00:56:37
  TRACK 46 AUDIO
    TITLE "0:"
    INDEX 01 00:57:72
  TRACK 47 AUDIO
    TITLE "4:cjc114_2023"
    INDEX 01 00:58:24
  TRACK 48 AUDIO
    TITLE "0:"
    INDEX 01 01:02:71
  TRACK 49 AUDIO
    TITLE "2:cjc114_2024"
    INDEX 01 01:03:43
  TRACK 50 AUDIO
    TITLE "0:"
    INDEX 01 01:04:50
  TRACK 51 AUDIO
    TITLE "3:cjc114_2025"
    INDEX 01 01:04:72
  TRACK 52 AUDIO
    TITLE "0:"
    INDEX 01 01:06:20
  TRACK 53 AUDIO
    TITLE "4:cjc114_2026"
    INDEX 01 01:06:47
  TRACK 54 AUDIO
    TITLE "0:"
    INDEX 01 01:11:15
  TRACK 55 AUDIO
    TITLE "2:cjc114_2027"
    INDEX 01 01:11:60
  TRACK 56 AUDIO
    TITLE "0:"
    INDEX 01 01:12:73
  TRACK 57 AUDIO
    TITLE "3:cjc114_2028"
    INDEX 01 01:13:20
  TRACK 58 AUDIO
    TITLE "0:"
    INDEX 01 01:14:70
  TRACK 59 AUDIO
    TITLE "4:cjc114_2029"
    INDEX 01 01:15:19
  TRACK 60 AUDIO
    TITLE "0:"
    INDEX 01 01:18:25
